<svg width="48" height="48" viewBox="0 0 48 48" fill="none" xmlns="http://www.w3.org/2000/svg">
<path d="M17.7891 5.60156H18.1875L18.6797 5.64844L19.2188 5.76562L19.7109 5.92969L20.1094 6.11719L20.5312 6.375L20.8359 6.60938L21.1641 6.89062L21.4688 7.21875L21.7969 7.66406L22.0312 8.08594L22.2188 8.50781L22.3594 8.92969L22.4766 9.51562L22.5 9.75V13.4766L22.6641 13.4062L23.0625 13.2422L23.4141 13.1484L23.8359 13.1016H24.1875L24.6797 13.1719L25.1719 13.3359L25.4531 13.4766L25.4766 9.9375L25.5234 9.46875L25.6172 9L25.7344 8.625L25.875 8.27344L26.0625 7.89844L26.2969 7.52344L26.6016 7.14844L26.7656 6.96094L27 6.72656L27.3984 6.42188L27.7266 6.21094L28.1719 5.97656L28.6172 5.8125L29.0625 5.69531L29.5078 5.625L29.8125 5.60156H30.2109L30.7031 5.64844L31.1484 5.74219L31.7109 5.92969L32.0859 6.11719L32.4609 6.32812L32.8359 6.60938L33.1641 6.89062L33.4688 7.21875L33.7031 7.52344L33.8906 7.82812L34.1484 8.32031L34.2656 8.64844V8.69531L34.6875 8.78906L35.2031 8.92969L35.7422 9.11719L36.3281 9.375L36.8438 9.65625L37.3125 9.96094L37.7109 10.2656L38.0391 10.5469L38.3438 10.8281L38.6719 11.1797L38.9766 11.5547L39.2578 11.9531L39.5156 12.375L39.7969 12.8672L40.1953 13.6406L40.4062 14.0156L40.5938 14.3906L40.7812 14.7188L40.9688 15.0938L41.3203 15.75L41.7188 16.5L42.0703 17.1562L42.3516 17.6953L42.6328 18.2109L42.9141 18.75L43.1953 19.2656L43.4766 19.8047L43.6875 20.1797L43.8516 20.5078L44.0625 20.8828L44.2266 21.2109L44.5078 21.7266L44.8359 22.3594L45.1172 22.875L45.3984 23.4141L45.6797 23.9297L45.9844 24.5156L46.2891 25.0547L46.6172 25.6641L46.875 26.1328L47.1562 26.7891L47.3672 27.3516L47.5547 27.9141L47.7656 28.7578L47.9062 29.5078L47.9531 29.8359L48 29.8594V32.3203L47.9531 32.3438L47.8359 33.1172L47.6953 33.8203L47.5078 34.4766L47.3203 35.0391L47.1094 35.5547L46.8516 36.1172L46.5703 36.6562L46.2422 37.1953L45.9375 37.6406L45.6562 38.0156L45.3516 38.3906L45.1641 38.625H45.1172L45.0703 38.7188L44.9062 38.9062L44.6016 39.2109L44.4141 39.375L44.1094 39.6562L43.8516 39.8672L43.5234 40.125L43.1016 40.4297L42.5859 40.7578L42.0938 41.0391L41.5547 41.3203L40.8984 41.6016L40.1016 41.8828L39.3984 42.0703L38.7188 42.2109L38.1094 42.3047L37.3125 42.375H36.1406L35.5078 42.3281L34.7344 42.2109L34.1719 42.0938L33.4688 41.9062L32.9062 41.7188L32.25 41.4609L31.4297 41.0625L30.8906 40.7578L30.3281 40.3828L29.9062 40.0781L29.5312 39.7734L29.2031 39.4922L29.0156 39.3047L28.8281 39.1406L28.6406 38.9531V38.9062H28.5938L28.4297 38.7188L28.1484 38.4141L27.9609 38.1797L27.6328 37.7578L27.1641 37.0547L26.8359 36.4922L26.625 36.0938L26.3203 35.4141L26.0859 34.7812L25.8984 34.1953L25.7344 33.5391L25.6172 32.9062L25.5234 32.2031L25.4766 31.4531L25.4531 30.7734L25.0781 30.9375L24.6094 31.0781L24.2812 31.125H23.6719L23.25 31.0547L22.8984 30.9375L22.5469 30.7734L22.5234 31.1016L22.4766 32.1328L22.3828 32.8828L22.2656 33.4922L22.125 34.0781L21.9141 34.7578L21.7031 35.3438L21.3984 36.0234L21.0703 36.6562L20.7422 37.1953L20.4375 37.6406L20.1562 38.0156L19.8516 38.3906L19.6641 38.625H19.6172L19.5703 38.7188L19.4062 38.9062L19.1016 39.2109L18.9141 39.375L18.6094 39.6562L18.3516 39.8672L18.0234 40.125L17.6016 40.4297L17.0859 40.7578L16.5938 41.0391L16.0547 41.3203L15.3984 41.6016L14.6016 41.8828L13.8984 42.0703L13.2188 42.2109L12.6094 42.3047L11.8125 42.375H10.6406L10.0078 42.3281L9.23438 42.2109L8.67188 42.0938L7.96875 41.9062L7.40625 41.7188L6.75 41.4609L5.92969 41.0625L5.39062 40.7578L4.82812 40.3828L4.40625 40.0781L4.03125 39.7734L3.70312 39.4922L3.51562 39.3047L3.32812 39.1406L3.14062 38.9531V38.9062H3.09375L2.92969 38.7188L2.64844 38.4141L2.46094 38.1797L2.13281 37.7578L1.66406 37.0547L1.33594 36.4922L1.125 36.0938L0.84375 35.4609L0.609375 34.8516L0.398438 34.1953L0.257812 33.6328L0.140625 33.0469L0.0234375 32.2734L0 32.1562V30.0469L0.046875 29.8594L0.1875 28.9453L0.351562 28.2422L0.539062 27.6094L0.773438 26.9531L1.07812 26.2266L1.35938 25.6875L1.66406 25.1484L1.96875 24.5859L2.25 24.0469L2.41406 23.7656L2.57812 23.4375L2.8125 22.9922L3.16406 22.3359L3.35156 22.0078L3.53906 21.6328L3.9375 20.8828L4.28906 20.2266L5.08594 18.7266L5.36719 18.2109L5.67188 17.625L5.95312 17.1094L6.23438 16.5703L6.51562 16.0547L6.86719 15.375L7.14844 14.8594L7.42969 14.3203L7.71094 13.8047L8.01562 13.2188L8.25 12.7734L8.46094 12.3984L8.78906 11.8828L9.02344 11.5547L9.35156 11.1562L9.60938 10.875L9.91406 10.5703L10.1016 10.4062L10.4531 10.125L10.9219 9.79688L11.3906 9.51562L11.9062 9.25781L12.4922 9.02344L13.1016 8.83594L13.6406 8.71875L13.7344 8.625L13.875 8.27344L14.0625 7.89844L14.2969 7.52344L14.4609 7.3125L14.7188 7.00781L15 6.72656L15.3984 6.42188L15.8438 6.14062L16.2891 5.92969L16.8516 5.74219L17.2969 5.64844L17.7891 5.60156ZM17.8359 7.125L17.4375 7.17188L17.0625 7.26562L16.6172 7.45312L16.2422 7.6875L15.9141 7.96875L15.75 8.13281L15.5156 8.4375L15.4219 8.60156L15.6797 8.64844L16.3359 8.74219L16.875 8.85938L17.4375 9.02344L18.0703 9.28125L18.5625 9.51562L19.0312 9.79688L19.4062 10.0547L19.7109 10.2891L20.0391 10.5703L20.1094 10.6406H20.1562L20.2031 10.7344L20.3906 10.8984L20.6484 11.1797L20.8594 11.4375L20.9531 11.5781H20.9766V9.84375L20.9062 9.42188L20.7891 9.04688L20.625 8.67188L20.4141 8.34375L20.2266 8.10938L19.9688 7.85156L19.6172 7.59375L19.1719 7.35938L18.75 7.21875L18.375 7.14844L18.1406 7.125H17.8359ZM29.8594 7.125L29.4375 7.17188L29.0625 7.26562L28.6172 7.45312L28.2422 7.6875L27.9141 7.96875L27.6562 8.25L27.4219 8.60156L27.2344 8.97656L27.0938 9.375L27.0234 9.82031L27 10.2188V11.4844L27.0469 11.5547L27.3047 11.25L27.5156 10.9922L27.9844 10.5234L28.3125 10.2656L28.5469 10.0781L28.9219 9.82031L29.4375 9.51562L29.9531 9.25781L30.6328 9L31.2188 8.83594L31.8047 8.71875L32.5312 8.625L32.5547 8.55469L32.3203 8.22656L32.1094 7.99219L31.8516 7.75781L31.5 7.52344L31.0547 7.3125L30.6562 7.19531L30.1406 7.125H29.8594ZM14.7656 10.125L13.9219 10.2188L13.3125 10.3594L12.7734 10.5469L12.2578 10.7812L11.8828 10.9922L11.6016 11.1797L11.2266 11.4609L10.9688 11.6953L10.7812 11.8594L10.5938 12.0469L10.4297 12.2344L10.1484 12.5859L9.98438 12.8438L9.79688 13.1484L9.53906 13.6406L9.30469 14.0625L8.90625 14.8125L8.67188 15.2578L8.39062 15.7734L8.10938 16.3125L7.82812 16.8281L7.40625 17.625L7.17188 18.0703L6.89062 18.5859L6.53906 19.2656L6.25781 19.7812L5.97656 20.3203L5.69531 20.8359L5.36719 21.4688L5.39062 21.5156L5.78906 21.2812L6.46875 20.9297L7.05469 20.6719L7.85156 20.3906L8.53125 20.2031L9.1875 20.0625L9.77344 19.9688L10.5 19.8984L10.8984 19.875H11.5547L12.2812 19.9219L13.1953 20.0391L13.875 20.1797L14.5547 20.3672L15.0469 20.5312L15.7031 20.7891L16.1719 21L16.6172 21.2344L17.1094 21.5156L17.5078 21.7734L17.9062 22.0547L18.2109 22.2891L18.4453 22.4766L18.7969 22.7812L19.1484 23.1094L19.4766 23.4375L19.6406 23.625L19.8516 23.8594L20.1094 24.1875L20.3906 24.5625L20.8594 25.2656L20.9531 25.4297H20.9766V15.7969L20.9297 15.2812L20.8125 14.6719L20.6719 14.2031L20.5078 13.7578L20.2734 13.2656L19.9922 12.7969L19.6641 12.3516L19.3828 12.0234L19.0312 11.6719L18.7734 11.4609L18.4922 11.25L18.1406 11.0156L17.7188 10.7812L17.2734 10.5703L16.8281 10.4062L16.2891 10.2656L15.75 10.1719L15.1172 10.125H14.7656ZM32.8359 10.125L32.2266 10.1719L31.6875 10.2656L31.1016 10.4297L30.6094 10.6172L30.1641 10.8281L29.6953 11.1094L29.3203 11.3906L29.0156 11.6484L28.875 11.7656V11.8125L28.7812 11.8594L28.5938 12.0469L28.1719 12.5625L27.9375 12.9141L27.7266 13.2656L27.4688 13.8047L27.2812 14.3203L27.1406 14.8594L27.0703 15.2344L27.0234 15.6797L27 16.2891V25.3828L27.0469 25.4297L27.2578 25.0781L27.4922 24.7266L27.7969 24.3047L28.1016 23.9297L28.3125 23.6719L28.5 23.4844L28.6641 23.2969L29.1094 22.8516L29.2969 22.6875L29.625 22.4062L29.9531 22.1484L30.375 21.8438L30.8438 21.5391L31.3359 21.2578L31.9688 20.9297L32.6719 20.625L33.5156 20.3438L34.2188 20.1562L34.9453 20.0156L35.6953 19.9219L36.3984 19.875H37.0312L37.7812 19.9219L38.6953 20.0391L39.375 20.1797L40.0547 20.3672L40.6172 20.5547L41.3672 20.8594L41.9062 21.1172L42.375 21.375L42.5859 21.5156H42.6328L42.5859 21.375L42.2344 20.6953L41.9531 20.1797L41.6719 19.6406L41.3906 19.125L41.0625 18.4922L40.7812 17.9766L40.4766 17.3906L40.1953 16.875L39.9141 16.3359L39.6328 15.8203L39.3281 15.2344L39.0469 14.7188L38.7656 14.1797L38.4844 13.6641L38.3438 13.4297L38.1562 13.0547L37.8281 12.5625L37.5703 12.2344L37.2891 11.9297L37.0312 11.6719L36.7734 11.4609L36.4688 11.2266L36.0234 10.9453L35.4844 10.6641L34.8984 10.4297L34.4062 10.2891L33.9141 10.1953L33.1875 10.125H32.8359ZM23.8828 14.625L23.5312 14.6953L23.2969 14.7891L23.0391 14.9766L22.8047 15.2109L22.6172 15.5391L22.5234 15.9141L22.5 16.2891V25.5L22.6641 25.4297L23.0625 25.2656L23.4375 25.1719L23.8828 25.125H24.1641L24.6562 25.1953L25.0547 25.3125L25.4531 25.5H25.4766V15.9141L25.4062 15.6094L25.2188 15.2578L25.0078 15.0234L24.8438 14.8828L24.4688 14.6953L24.0938 14.625H23.8828ZM10.5703 21.3984L9.72656 21.4922L9 21.6328L8.41406 21.7969L7.78125 22.0078L7.07812 22.3125L6.44531 22.6406L5.90625 22.9688L5.57812 23.2031L5.20312 23.4844L4.89844 23.7422L4.6875 23.9062V23.9531H4.64062V24L4.54688 24.0469L4.125 24.4688L3.91406 24.7266L3.67969 24.9844L3.32812 25.4531L3.09375 25.8047L2.95312 26.0391L2.71875 26.4609L2.4375 27L2.22656 27.4453L2.0625 27.8672L1.875 28.4766L1.75781 28.9219L1.64062 29.5078L1.57031 29.9766L1.5 30.9609V31.2656L1.52344 31.7812L1.59375 32.4609L1.71094 33.1406L1.875 33.7969L2.15625 34.6406L2.46094 35.3438L2.74219 35.8828L3.02344 36.3516L3.21094 36.6328L3.51562 37.0547L3.72656 37.3125L3.98438 37.6172L4.14844 37.7812L4.3125 37.9688L4.54688 38.2031L4.73438 38.3672L4.99219 38.6016L5.29688 38.8359L5.53125 39.0234L6.14062 39.4219L6.63281 39.7031L7.00781 39.8906L7.45312 40.1016L8.0625 40.3359L8.76562 40.5469L9.39844 40.6875L9.98438 40.7812L10.7344 40.8516H11.7422L12.3281 40.8047L12.9844 40.7109L13.7109 40.5469L14.4141 40.3359L15.0703 40.0781L15.6797 39.7969L16.1953 39.5156L16.7109 39.1875L17.0391 38.9531L17.3438 38.7188L17.6484 38.4609L17.9531 38.1797L18.1406 38.0156L18.3047 37.8281L18.5625 37.5703L18.7734 37.3125L19.0547 36.9609L19.2891 36.6328L19.5 36.3047L19.7109 35.9531L19.9688 35.4844L20.2734 34.8047L20.5078 34.1484L20.6953 33.5156L20.8594 32.7188L20.9531 31.9688L20.9766 31.5938V30.5859L20.9062 29.8594L20.7891 29.1328L20.6016 28.3828L20.3906 27.75L20.1797 27.2344L19.9453 26.7188L19.6641 26.2031L19.3828 25.7578L19.125 25.3828L18.7969 24.9609L18.5859 24.7266L18.4219 24.5391L18.1406 24.2344L17.9062 24L17.7188 23.8359L17.4844 23.625L17.0859 23.3203L16.6875 23.0391L16.2422 22.7578L15.8672 22.5469L15.3281 22.2656L14.5781 21.9609L14.0156 21.7734L13.2656 21.5859L12.4219 21.4453L11.8594 21.3984H10.5703ZM36.0703 21.3984L35.2266 21.4922L34.5 21.6328L33.9141 21.7969L33.2812 22.0078L32.5781 22.3125L32.1094 22.5469L31.5938 22.8516L31.1719 23.1328L30.7266 23.4609L30.3984 23.7422L30.1875 23.9062V23.9531L30.0938 24L29.625 24.4688L29.4609 24.6562L29.1797 24.9844L28.8281 25.4531L28.6641 25.6875L28.3828 26.1328L28.2188 26.4141L28.0781 26.6719L27.7734 27.3281L27.5625 27.8672L27.375 28.4766L27.2578 28.9219L27.1406 29.5078L27.0703 29.9766L27 31.0078L27.0234 31.7578L27.1172 32.6016L27.2344 33.2344L27.375 33.7969L27.6562 34.6406L27.9609 35.3438L28.2422 35.8828L28.5234 36.3516L28.7109 36.6328L29.0156 37.0547L29.2266 37.3125L29.4844 37.6172L29.6484 37.7812L29.8125 37.9688L30.0469 38.2031L30.2344 38.3672L30.4922 38.6016L30.7969 38.8359L31.0312 39.0234L31.6406 39.4219L32.1328 39.7031L32.5078 39.8906L32.9531 40.1016L33.5625 40.3359L34.2656 40.5469L34.8984 40.6875L35.4844 40.7812L36.2344 40.8516H37.2422L37.8281 40.8047L38.4844 40.7109L39.2109 40.5469L39.9141 40.3359L40.5703 40.0781L41.1797 39.7969L41.6953 39.5156L42.2109 39.1875L42.5391 38.9531L42.8438 38.7188L43.1484 38.4609L43.4531 38.1797L43.6406 38.0156L43.8047 37.8281L44.0625 37.5703L44.2734 37.3125L44.5547 36.9609L44.7891 36.6328L45 36.3047L45.2109 35.9531L45.4688 35.4844L45.7734 34.8047L46.0078 34.1484L46.1484 33.6797L46.3125 32.9766L46.4062 32.4141L46.4531 31.9688L46.4766 31.5938V30.5859L46.4062 29.8594L46.3125 29.2734L46.1719 28.6406L45.9844 28.0078L45.7031 27.2812L45.3281 26.5312L45.0234 25.9922L44.7422 25.5469L44.4609 25.1719L44.2031 24.8438L43.8984 24.5156L43.7344 24.3281L43.4062 24L43.2188 23.8359L42.9844 23.625L42.5859 23.3203L42.1641 23.0156L41.5078 22.6172L40.8281 22.2656L40.0781 21.9609L39.5156 21.7734L38.7656 21.5859L37.9219 21.4453L37.3594 21.3984H36.0703ZM23.7422 26.6484L23.4141 26.7422L23.2031 26.8594L22.9922 27.0234L22.8281 27.1875L22.6875 27.3984L22.5703 27.7031L22.5234 27.9141V28.3594L22.5938 28.6406L22.7344 28.9219L22.8984 29.1328L23.0625 29.2969L23.3672 29.4844L23.6719 29.5781L23.7891 29.6016H24.1875L24.5625 29.5078L24.8203 29.3672L25.0547 29.1797L25.2188 28.9922L25.3359 28.7812L25.4297 28.5469L25.4766 28.3359V27.9141L25.4062 27.6328L25.2188 27.2578L25.0078 27.0234L24.7734 26.8359L24.5156 26.7188L24.2578 26.6484H23.7422Z" fill="#F6AFB7"/>
<path d="M10.9922 23.6016H11.4375L12.0938 23.6484L12.7031 23.7422L13.2891 23.8828L13.9922 24.1172L14.625 24.3984L15.0938 24.6562L15.6562 25.0312L15.9844 25.2891L16.3125 25.5703L16.5469 25.7812V25.8281H16.5938L16.7578 26.0156L17.0156 26.2969L17.2734 26.625L17.5547 27.0234L17.7656 27.375L18.0469 27.9141L18.2812 28.4531L18.4922 29.1094L18.6328 29.6953L18.7266 30.3047L18.75 30.5859V31.6641L18.7031 32.1328L18.6094 32.6719L18.4688 33.2344L18.2812 33.7969L18 34.4531L17.8594 34.7109L17.6719 35.0391L17.4375 35.3906L17.1094 35.8359L16.8047 36.1875L16.6172 36.375L16.5938 36.4219H16.5469V36.4688L16.3594 36.6328L16.1016 36.8672L15.8672 37.0547L15.5156 37.3125L15.1172 37.5703L14.5547 37.875L14.0859 38.0859L13.4297 38.3203L12.7734 38.4844L12.2109 38.5781L11.7188 38.625H10.7578L10.0781 38.5547L9.51562 38.4375L8.92969 38.2734L8.41406 38.0859L7.85156 37.8281L7.33594 37.5469L7.05469 37.3594L6.72656 37.125L6.49219 36.9375L6.16406 36.6562L5.64844 36.1406L5.22656 35.625L4.94531 35.2266L4.73438 34.875L4.54688 34.5469L4.26562 33.9141L4.03125 33.2578L3.91406 32.8125L3.82031 32.3203L3.75 31.7344L3.72656 31.3828V30.9375L3.77344 30.2578L3.89062 29.5547L4.05469 28.9219L4.24219 28.3828L4.40625 27.9844L4.64062 27.5391L4.89844 27.0938L5.15625 26.7188L5.39062 26.4141L5.60156 26.1562L5.95312 25.7812L6.16406 25.5703L6.35156 25.4062L6.72656 25.1016L7.35938 24.6797L7.875 24.3984L8.32031 24.1875L8.88281 23.9766L9.46875 23.8125L10.0547 23.6953L10.6406 23.625L10.9922 23.6016ZM11.2266 25.125L10.7109 25.1484L10.1719 25.2188L9.58594 25.3594L9.02344 25.5469L8.4375 25.8281L8.17969 25.9688L7.85156 26.1797L7.57031 26.3906L7.24219 26.6719L6.96094 26.9297L6.9375 27L6.86719 27.0234L6.70312 27.2109L6.42188 27.5625L6.1875 27.9141L5.95312 28.3125L5.71875 28.8047L5.53125 29.3203L5.36719 29.9531L5.27344 30.6328L5.25 30.9375V31.3359L5.32031 32.0156L5.4375 32.6016L5.57812 33.0703L5.8125 33.6562L6.09375 34.1953L6.375 34.6172L6.60938 34.9219L7.03125 35.3906L7.35938 35.6953L7.6875 35.9531L8.10938 36.2344L8.625 36.5156L9.11719 36.7266L9.67969 36.9141L10.2422 37.0312L10.8047 37.1016H11.6719L12.2578 37.0312L12.7969 36.9141L13.5 36.6797L14.1797 36.3516L14.5547 36.1172L14.8828 35.8828L15.1172 35.6953L15.4219 35.4141L15.75 35.0859L15.9609 34.8281L16.2891 34.3828L16.5 34.0312L16.7578 33.4922L16.9453 33L17.0859 32.4844L17.1797 31.9922L17.2266 31.5469V30.7031L17.1562 30.1172L17.0391 29.5781L16.8984 29.1328L16.7578 28.7578L16.5234 28.2656L16.2422 27.7969L15.9375 27.3984L15.75 27.1641L15.6094 27H15.5625L15.5156 26.9062L15.1641 26.5781L14.8125 26.2969L14.3438 25.9922L13.9219 25.7578L13.4062 25.5234L12.9141 25.3594L12.3281 25.2188L11.7422 25.1484L11.2266 25.125Z" fill="#F6AFB7"/>
<path d="M36.4922 23.6016H36.9375L37.5938 23.6484L38.2031 23.7422L38.7891 23.8828L39.4922 24.1172L40.125 24.3984L40.5938 24.6562L41.1562 25.0312L41.4844 25.2891L41.8125 25.5703L42.0469 25.7812V25.8281H42.0938L42.2578 26.0156L42.5156 26.2969L42.7734 26.625L43.0547 27.0234L43.2656 27.375L43.5469 27.9141L43.7812 28.4531L43.9922 29.1094L44.1328 29.6953L44.2266 30.3047L44.25 30.5859V31.6641L44.2031 32.1328L44.1094 32.6719L43.9688 33.2344L43.7812 33.7969L43.5 34.4531L43.3594 34.7109L43.1719 35.0391L42.9375 35.3906L42.6094 35.8359L42.3047 36.1875L42.1172 36.375L42.0938 36.4219H42.0469V36.4688L41.8594 36.6328L41.6016 36.8672L41.3672 37.0547L41.0156 37.3125L40.6172 37.5703L40.0547 37.875L39.5859 38.0859L38.9297 38.3203L38.2734 38.4844L37.7109 38.5781L37.2188 38.625H36.2578L35.5781 38.5547L35.0156 38.4375L34.4297 38.2734L33.9141 38.0859L33.4453 37.875L32.9531 37.6172L32.5547 37.3594L32.2266 37.125L31.9922 36.9375L31.6641 36.6562L31.1484 36.1406L30.7266 35.625L30.4453 35.2266L30.2344 34.875L30.0469 34.5469L29.7656 33.9141L29.5312 33.2578L29.4141 32.8125L29.3203 32.3203L29.25 31.7344L29.2266 31.3828V30.9375L29.2734 30.2578L29.3906 29.5547L29.5547 28.9219L29.7422 28.3828L29.9297 27.9609L30.1172 27.5859L30.3516 27.1641L30.6094 26.7891L30.7969 26.5312L31.1016 26.1562L31.4766 25.7578L31.6641 25.5703L31.8516 25.4062L32.2266 25.1016L32.8594 24.6797L33.375 24.3984L33.8203 24.1875L34.3828 23.9766L34.9688 23.8125L35.5547 23.6953L36.1406 23.625L36.4922 23.6016ZM36.7266 25.125L36.2109 25.1484L35.6719 25.2188L35.0859 25.3594L34.5234 25.5469L33.9375 25.8281L33.6797 25.9688L33.3516 26.1797L33.0703 26.3906L32.7422 26.6719L32.625 26.7656V26.8125L32.5312 26.8594L32.4375 26.9531V27L32.3672 27.0234L32.2031 27.2109L31.9219 27.5625L31.6875 27.9141L31.4531 28.3125L31.2188 28.8047L31.0312 29.3203L30.8906 29.8594L30.8203 30.2344L30.75 30.9375V31.3359L30.8203 32.0156L30.9375 32.6016L31.0781 33.0703L31.3125 33.6562L31.5938 34.1953L31.875 34.6172L32.1094 34.9219L32.5312 35.3906L32.8594 35.6953L33.1875 35.9531L33.6094 36.2344L34.125 36.5156L34.6172 36.7266L35.1797 36.9141L35.7422 37.0312L36.3047 37.1016H37.1719L37.7578 37.0312L38.2969 36.9141L39 36.6797L39.6797 36.3516L40.0547 36.1172L40.3828 35.8828L40.6172 35.6953L40.9219 35.4141L41.25 35.0859L41.4609 34.8281L41.7891 34.3828L42 34.0312L42.2578 33.4922L42.4453 33L42.5859 32.4844L42.6797 31.9922L42.7266 31.5469V30.7031L42.6562 30.1172L42.5391 29.5781L42.3984 29.1328L42.2578 28.7578L42.0234 28.2656L41.7422 27.7969L41.4375 27.3984L41.25 27.1641L41.1094 27H41.0625L41.0156 26.9062L40.6641 26.5781L40.3125 26.2969L39.8438 25.9922L39.4219 25.7578L38.9062 25.5234L38.4141 25.3594L37.8281 25.2188L37.2422 25.1484L36.7266 25.125Z" fill="#F6AFB7"/>
</svg>
