<svg width="48" height="48" viewBox="0 0 48 48" fill="none" xmlns="http://www.w3.org/2000/svg">
<path d="M23.9992 3.42847C35.3606 3.42847 44.5706 12.6385 44.5706 23.9999C44.5706 35.3613 35.3606 44.5713 23.9992 44.5713C12.6377 44.5713 3.42773 35.3613 3.42773 23.9999C3.42773 12.6385 12.6377 3.42847 23.9992 3.42847ZM23.9992 6.85704C14.5312 6.85704 6.85631 14.5319 6.85631 23.9999C6.85631 33.4679 14.5312 41.1428 23.9992 41.1428C33.4672 41.1428 41.142 33.4679 41.142 23.9999C41.142 14.5319 33.4672 6.85704 23.9992 6.85704ZM33.15 14.4488L26.916 26.9168L14.448 33.1508L20.682 20.6828L33.15 14.4488ZM22.554 22.4288L18.4689 29.1308L25.17 25.0448L22.554 22.4288Z" fill="#252525"/>
</svg>
